<?xml version="1.0" encoding="utf-8"?>
<!-- Generator: Adobe Illustrator 16.0.0, SVG Export Plug-In . SVG Version: 6.00 Build 0)  -->
<!DOCTYPE svg PUBLIC "-//W3C//DTD SVG 1.1//EN" "http://www.w3.org/Graphics/SVG/1.1/DTD/svg11.dtd">
<svg version="1.1" id="Layer_1" xmlns="http://www.w3.org/2000/svg" xmlns:xlink="http://www.w3.org/1999/xlink" x="0px" y="0px"
	 width="612px" height="792px" viewBox="0 0 612 792" enable-background="new 0 0 612 792" xml:space="preserve">
<g>
	<path fill="#FF0000" d="M106.861,209.531l31.317,415.85c2.988,38.848,35.381,69.447,72.555,69.447h190.413
		c37.175,0,69.567-30.6,72.556-69.447l31.437-415.85H106.861z M227.229,640.8c0.358,8.487-6.096,15.181-14.344,15.181
		s-15.181-6.813-15.659-15.181l-17.452-354.529c-0.598-11.475,6.813-20.799,16.496-20.799c9.682,0,17.81,9.324,18.288,20.799
		L227.229,640.8z M320.941,640.8c0,8.487-6.813,15.181-14.941,15.181s-14.941-6.813-14.941-15.181l-2.391-354.529
		c-0.12-11.475,7.65-20.799,17.332-20.799c9.682,0,17.451,9.324,17.332,20.799L320.941,640.8z M414.654,640.8
		c-0.359,8.487-7.411,15.181-15.659,15.181c-8.247,0-14.583-6.813-14.344-15.181l12.671-354.529
		c0.358-11.475,8.605-20.799,18.288-20.799c9.682,0,17.093,9.324,16.495,20.799L414.654,640.8z"/>
	<path id="XMLID_2_" fill="#FF0000" d="M532.272,188.972H79.728l0,0c-2.152-25.221,12.79-45.9,33.349-45.9h385.966
		C519.482,143.072,534.424,163.87,532.272,188.972L532.272,188.972z"/>
	<path id="XMLID_1_" fill="#FF0000" d="M387.64,160.045H224.36l-0.239-9.324c-0.956-29.285,17.452-53.55,41.119-53.55h81.64
		c23.548,0,41.955,24.265,41.118,53.431L387.64,160.045z"/>
</g>
</svg>
