<?xml version="1.0" encoding="utf-8"?>
<!-- Generator: Adobe Illustrator 16.0.0, SVG Export Plug-In . SVG Version: 6.00 Build 0)  -->
<!DOCTYPE svg PUBLIC "-//W3C//DTD SVG 1.1//EN" "http://www.w3.org/Graphics/SVG/1.1/DTD/svg11.dtd">
<svg version="1.1" id="Capa_1" xmlns="http://www.w3.org/2000/svg" xmlns:xlink="http://www.w3.org/1999/xlink" x="0px" y="0px"
	 width="213.859px" height="213.859px" viewBox="0 0 213.859 213.859" enable-background="new 0 0 213.859 213.859"
	 xml:space="preserve">
<g>
	<g>
		<path fill="#434343" d="M213.394,112.423c-0.564-0.92-1.569-1.479-2.647-1.479h-97.043l-9.563-7.462
			c0.998-3.987-1.209-8.104-5.18-9.331l-23.238-7.204L59.177,62.403c0-3.928-1.819-7.508-4.785-9.813
			c-1.498-2.135-3.843-3.653-6.638-3.955c-3.422-0.375-6.622,1.225-8.527,3.85c-2.576,1.957-4.402,4.907-4.832,8.366l-6.234,49.885
			c-0.394,3.147,0.466,6.146,2.131,8.574l-9.578,39.677l-19.248,30.25c-2.772,4.359-1.488,10.14,2.868,12.909
			c1.56,0.999,3.294,1.461,5.016,1.461c3.093,0,6.115-1.533,7.899-4.335l20.082-31.556c0.548-0.863,0.962-1.819,1.195-2.824
			l6.293-26.073l15.451,21.593l8.573,36.012c1.023,4.293,4.856,7.186,9.092,7.186c0.716,0,1.445-0.085,2.177-0.262
			c5.023-1.188,8.13-6.235,6.934-11.26l-8.997-37.795c-0.282-1.176-0.785-2.296-1.491-3.271l-24.46-34.189
			c0.381-0.956,0.679-1.941,0.81-3.002l3.462-27.706l7.962,11.811c0.991,1.471,2.463,2.562,4.158,3.084l25.857,8.015
			c0.772,0.242,1.547,0.353,2.313,0.353c1.297,0,2.512-0.4,3.635-1.011l9.396,7.338l6.083,53.263
			c0.184,1.57,1.512,2.765,3.101,2.765h64.647c1.183,0,2.267-0.67,2.789-1.729l27.229-54.559
			C214.015,114.493,213.96,113.342,213.394,112.423z M205.697,117.19l-3.737,7.49h-84.976l-0.854-7.49H205.697z M195.114,138.406
			h-76.559l-0.858-7.496h81.156L195.114,138.406z M188.258,152.135H120.12l-0.854-7.494h72.734L188.258,152.135z M181.591,165.514
			h-59.941l-0.814-7.144h64.309L181.591,165.514z"/>
		<path fill="#434343" d="M121.356,173.704c-6.526,0-11.84,5.314-11.84,11.844c0,6.527,5.313,11.837,11.84,11.837
			s11.837-5.31,11.837-11.837S127.884,173.704,121.356,173.704z M121.356,191.149c-3.094,0-5.607-2.509-5.607-5.603
			s2.516-5.607,5.607-5.607c3.094,0,5.603,2.516,5.603,5.607C126.958,188.641,124.45,191.149,121.356,191.149z"/>
		<path fill="#434343" d="M179.812,173.704c-6.526,0-11.845,5.314-11.845,11.844c0,6.527,5.316,11.837,11.845,11.837
			c6.527,0,11.837-5.31,11.837-11.837S186.34,173.704,179.812,173.704z M179.812,191.149c-3.095,0-5.607-2.509-5.607-5.603
			s2.516-5.607,5.607-5.607s5.603,2.516,5.603,5.607C185.414,188.641,182.905,191.149,179.812,191.149z"/>
		<circle fill="#434343" cx="59.04" cy="29.607" r="19.354"/>
	</g>
</g>
</svg>
