<?xml version="1.0" encoding="utf-8"?>
<!-- Generator: Adobe Illustrator 16.0.0, SVG Export Plug-In . SVG Version: 6.00 Build 0)  -->
<!DOCTYPE svg PUBLIC "-//W3C//DTD SVG 1.1//EN" "http://www.w3.org/Graphics/SVG/1.1/DTD/svg11.dtd">
<svg version="1.1" id="icons" xmlns="http://www.w3.org/2000/svg" xmlns:xlink="http://www.w3.org/1999/xlink" x="0px" y="0px"
	 width="612px" height="792px" viewBox="0 0 612 792" enable-background="new 0 0 612 792" xml:space="preserve">
<title></title>
<g id="Icon">
	<path fill="#ECECEC" d="M579.789,251.053H32.21c-17.789,0-32.21-14.421-32.21-32.21c0-17.79,14.421-32.21,32.21-32.21h547.579
		c17.79,0,32.211,14.421,32.211,32.21C612,236.631,597.579,251.053,579.789,251.053z"/>
	<path fill="#ECECEC" d="M579.789,428.211H32.21C14.421,428.211,0,413.789,0,396c0-17.79,14.421-32.21,32.21-32.21h547.579
		C597.579,363.79,612,378.21,612,396C612,413.789,597.579,428.211,579.789,428.211z"/>
	<path fill="#ECECEC" d="M579.789,605.368H32.21c-17.789,0-32.21-14.421-32.21-32.21c0-17.79,14.421-32.211,32.21-32.211h547.579
		c17.79,0,32.211,14.421,32.211,32.211C612,590.947,597.579,605.368,579.789,605.368z"/>
</g>
</svg>
